<?xml version="1.0" encoding="utf-8" ?><svg xmlns="http://www.w3.org/2000/svg" xmlns:xlink="http://www.w3.org/1999/xlink" width="1000" height="1000" viewBox="0 0 1000 1000"><path fill="#434F44" transform="scale(4.83092 4.83092)" d="M102.93 29.3624C116.726 29.3142 132.057 36.0285 141.696 45.8097C153.902 58.1962 159.151 72.8121 159.256 89.9433C159.463 114.528 149.785 138.165 132.397 155.546C124.803 163.216 114.311 172.488 103.053 172.552C92.4553 172.413 84.7211 166.291 77.0657 159.641C49.0203 135.278 34.386 86.2524 56.8486 53.8365C68.2068 37.4453 83.6934 30.536 102.93 29.3624ZM103.067 168.333C114.032 167.983 124.727 157.028 131.925 149.426C164.889 114.613 166.308 46.8021 110.9 34.4783C108.665 33.9814 105.693 33.5915 103.414 33.6082C88.1366 34.3465 74.9725 39.7239 64.8005 51.1768C53.4556 63.9502 49.517 78.5917 50.5499 95.3736C52.0588 119.889 63.3289 141.376 81.6727 157.496C87.6091 162.712 94.8406 168.327 103.067 168.333Z"/><path fill="#434F44" transform="scale(4.83092 4.83092)" d="M124.893 73.0974C128.649 72.2385 145.434 75.7432 141.782 81.2559C140.492 82.0831 138.567 81.0189 137.39 80.3917C132.849 77.972 129.086 77.2069 124.066 77.5126C118.468 78.9412 115.326 81.5475 110.277 83.8771C109.139 84.4026 106.686 82.7139 108.889 80.4326C113.151 76.0194 119.032 73.7856 124.893 73.0974Z"/><path fill="#434F44" transform="scale(4.83092 4.83092)" d="M76.9288 73.1023C83.073 72.1559 91.4413 75.6386 96.0336 79.5447C98.5755 81.7067 97.1044 85.4792 93.3041 83.1159C90.7426 81.523 87.8914 79.6545 85.1559 78.4719C72.5063 74.2857 68.1419 82.713 63.4564 81.4715C63.1221 81.165 62.8897 81.0671 62.8984 80.6011C62.9997 75.1939 73.8783 73.446 76.9288 73.1023Z"/><path fill="#434F44" transform="scale(4.83092 4.83092)" d="M95.1313 130.292C98.4738 130.13 99.5285 130.055 102.405 131.876C107.653 129.967 115.503 128.653 117.756 136.334C118.005 137.184 117.847 137.775 117.355 138.486C115.16 139.484 112.354 135.445 109.254 134.393C106.184 134.548 105.384 136.365 102.402 136.761C101.03 136.176 99.1366 134.926 97.8867 134.459C95.5986 133.106 90.0571 139.867 88.1846 138.317C83.906 134.775 94.0965 130.668 95.1313 130.292Z"/><path fill="#434F44" transform="scale(4.83092 4.83092)" d="M93.0905 141.377C96.0807 141.24 100.075 145.277 103.915 144.456C107.152 143.764 108.535 142.442 111.858 141.529C113.046 142.147 114.093 142.432 114.368 143.821C114.146 144.619 113.785 144.807 113.126 145.315C110.598 147.318 107.509 148.483 104.289 148.65C100.983 148.823 87.5588 146.607 93.0905 141.377Z"/><path fill="#434F44" transform="scale(4.83092 4.83092)" d="M133.859 93.6845C139.761 95.5777 133.605 99.9912 130.864 101.282C125.849 103.643 121.483 103.452 116.369 101.69C115.989 101.528 115.631 101.319 115.303 101.067C114.497 100.455 113.995 99.5472 113.851 98.5508C114.746 96.0774 119.782 98.2155 121.751 98.6168C127.479 99.7846 129.614 96.4713 133.859 93.6845Z"/><path fill="#434F44" transform="scale(4.83092 4.83092)" d="M70.7999 93.9109C73.6587 94.0551 76.5029 98.6125 80.0263 98.8058C83.4077 98.9912 85.816 97.9627 89.0804 97.5449C90.2368 97.3969 90.5307 97.5498 91.3107 98.1754C91.8699 99.6085 91.3876 100.495 90.0633 101.231C81.7274 105.849 64.7485 99.5011 70.7999 93.9109Z"/><path fill="#434F44" transform="scale(4.83092 4.83092)" d="M94.0441 114.965C96.1853 114.969 99.3241 117.65 102.806 118.451C105.125 117.764 113.051 113.015 113.358 117.62C113.097 118.348 112.462 118.73 111.841 119.206C106.143 122.496 99.0225 123.752 93.2318 118.736C91.8225 117.516 92.7289 115.943 94.0441 114.965Z"/><path fill="#434F44" transform="scale(4.83092 4.83092)" d="M174.156 115.736C176.849 115.204 180.249 124.958 181.455 127.136C182.549 129.112 185.152 134.248 182.964 135.97C178.724 136.802 176.737 125.727 174.854 124.651C174.368 125.075 174.408 126.138 174.187 127.021C170.366 142.276 153.015 168.83 139.956 176.785C135.145 174.241 141.782 169.343 144.132 167.253C158.248 154.7 164.26 139.338 171.37 122.291C168.306 124.331 164.756 126.331 161.37 127.793C159.8 128.471 158.308 128.817 157.119 127.409C157.08 127.106 156.999 126.344 157.134 126.142C159.166 123.115 171.201 117.058 174.156 115.736Z"/><path fill="#434F44" transform="scale(4.83092 4.83092)" d="M30.173 115.378C32.5354 115.763 46.726 123.891 48.0091 125.859C48.2394 126.668 48.1611 126.825 47.918 127.636C47.5654 128.007 47.3625 128.306 46.7928 128.35C43.7312 128.583 36.1862 123.859 33.7969 122.277C35.5379 125.447 37.0264 130.408 38.519 133.94C41.7914 141.516 45.9219 148.692 50.8295 155.327C52.5157 157.611 53.7166 159.013 55.9327 161.812C59.0038 165.692 65.1041 169.996 67.4842 174.151C67.832 174.758 66.9187 176.006 66.5527 176.512C63.3441 176.672 59.6541 172.096 57.4363 169.856C46.5655 158.878 33.0234 139.105 30.5417 123.693C29.3611 126.666 26.6724 133.653 24.0425 135.627C23.236 136.232 21.5795 135.59 21.1261 134.499C21.0768 132.016 28.3446 117.743 30.173 115.378Z"/></svg>